<svg xmlns="http://www.w3.org/2000/svg" xmlns:xlink="http://www.w3.org/1999/xlink" fill-rule="evenodd" viewBox="0 0 3013.12 907.49">
  <defs>
    <linearGradient id="a" x1="0" x2="907.49" y1="453.74" y2="453.74" gradientUnits="userSpaceOnUse">
      <stop offset="0" stop-color="#ce7df0"/>
      <stop offset="1" stop-color="#e2b1f6"/>
    </linearGradient>
    <linearGradient id="b" x1="1097.7" x2="3013.12" y1="453.75" y2="453.75" gradientUnits="userSpaceOnUse" xlink:href="#a"/>
  </defs>
  <path fill="url(#b)" fill-rule="nonzero" d="M1097.7 629.89v-49.7l36.63-7.69V334.85l-36.63-7.77v-49.95h158.19v49.95l-36.55 7.77V424h128.41v-89.15l-36.63-7.77v-49.95h157.94v49.95l-36.55 7.77V572.5l36.55 7.69v49.7h-157.94v-49.7l36.63-7.69v-83.35h-128.41v83.35l36.55 7.69v49.7H1097.7zm390.79 0v-49.7l36.63-7.69V334.85l-36.63-7.77v-49.95h157.94v49.95l-36.55 7.77V572.5l36.55 7.69v49.7h-157.94zm331.66 5.12c-28.69-.08-54.24-2.81-76.49-8.27-22.32-5.54-44.48-15.88-66.64-31.01V504.1h65.65l7.28 47.06c5.13 5.79 14.31 10.66 27.37 14.63 13.06 3.97 27.37 5.96 42.83 5.96 10.83 0 19.93-1.33 27.21-3.97 7.19-2.73 12.74-6.61 16.46-11.82 3.72-5.13 5.54-11.33 5.54-18.61 0-6.95-1.73-13.15-5.21-18.69-3.47-5.46-9.18-10.67-17.03-15.64-7.94-4.87-18.61-9.92-32-15.13-30.19-9.68-55-19.51-74.42-29.52-19.35-10.01-33.74-21.91-43.16-35.64-9.51-13.73-14.22-30.77-14.22-51.1 0-19.52 5.62-36.63 16.7-51.27 11.16-14.55 26.53-26.13 46.05-34.49 19.51-8.43 41.93-12.81 67.06-13.31 28.78-.66 54.25 2.23 76.32 8.6 22.16 6.36 41.68 16.04 58.63 28.94v85h-62.93l-10.01-47.21c-5.46-2.73-13.32-5.29-23.49-7.53-10.17-2.24-21-3.39-32.41-3.39-9.84 0-18.61 1.33-26.3 3.88-7.69 2.57-13.73 6.45-18.19 11.66-4.46 5.13-6.61 11.58-6.61 19.36 0 6.28 1.82 11.9 5.54 16.78 3.72 4.96 10.26 9.92 19.6 14.8 9.35 4.96 22.49 10.67 39.28 17.12 40.02 11.74 70.45 26.55 91.2 44.16 20.76 17.7 31.09 41.76 31.09 72.11 0 20.84-5.62 38.53-16.95 53.17-11.33 14.64-27.05 25.8-47.22 33.41-20.18 7.69-43.66 11.5-70.54 11.57zm149.76-5.12v-49.7l24.73-3.63 105.18-299.43h92.03l105.34 299.43 24.73 3.63v49.7h-131.81v-49.7l23.07-4.3-10.66-38.28h-113.37l-10.17 38.28 22.99 4.3v49.7h-132.06zm137.18-151.9h77.23l-34.39-106.84-3.88-12.32h-1.41l-4.13 13.56-33.41 105.6zm225.99 151.9v-49.7l24.73-3.63 105.18-299.43h92.04l105.34 299.43 24.73 3.63v49.7h-131.8v-49.7l23.07-4.3-10.66-38.28h-113.38l-10.17 38.28 22.99 4.3v49.7h-132.06zm137.18-151.9h77.24l-34.4-106.84-3.88-12.32h-1.41l-4.13 13.56-33.41 105.6zm230.13 151.9v-49.7l36.63-7.69V334.85l-36.63-7.77v-49.95h159.68c44.41 0 79.05 8.19 103.94 24.48s37.29 40.6 37.29 72.93c0 16.62-3.97 31.51-11.91 44.73-7.85 13.15-20.09 23.08-36.54 29.85 14.05 3.14 25.55 8.35 34.4 15.63 8.84 7.36 15.38 16.29 19.6 26.71 4.21 10.42 6.28 21.66 6.28 33.74 0 34.56-11.49 60.7-34.64 78.31-23.08 17.61-56.56 26.38-100.47 26.38H2700.4zm121.63-64.67h55.99c16.78 0 29.43-3.31 37.87-9.92 8.52-6.61 12.74-16.7 12.74-30.35 0-10.17-1.65-18.6-4.88-25.3-3.22-6.7-8.19-11.66-14.97-14.97-6.78-3.31-15.71-4.97-26.62-4.97h-60.12v85.5zm0-141.73h34.4c20.01 0 34.98-3.22 44.9-9.59 10.01-6.36 14.97-16.29 14.97-29.69 0-14.63-4.71-25.38-13.98-32.08-9.26-6.69-23.4-10.01-42.25-10.01h-38.04v81.37z"/>
  <path fill="url(#a)" d="M76.48 718.18L237.2 557.46h112.83v112.83L189.31 831.01 76.48 718.18zM453.74 77.32c44.06 0 79.78 35.72 79.78 79.78s-35.73 79.78-79.78 79.78c-44.06 0-79.78-35.72-79.78-79.78s35.72-79.78 79.78-79.78zm0 752.85c44.06 0 79.78-35.72 79.78-79.78s-35.73-79.78-79.78-79.78c-44.06 0-79.78 35.72-79.78 79.78s35.72 79.78 79.78 79.78zM0 373.97h350.03v159.55H0V373.97zm373.96-144.44v-6.16c19.02 22.88 47.7 37.45 79.78 37.45 32.07 0 60.75-14.57 79.77-37.45v460.76c-19.02-22.88-47.7-37.46-79.77-37.46-32.08 0-60.76 14.57-79.78 37.46v-454.6zm183.49 144.44h350.03v159.55H557.45V373.97zm-23.93 442.68v90.84H373.97v-90.84c19.02 22.88 47.7 37.45 79.78 37.45 32.07 0 60.75-14.57 79.77-37.45zM373.97 90.84V0h159.55v90.84c-19.02-22.88-47.7-37.45-79.77-37.45-32.08 0-60.76 14.57-79.78 37.45zm-136.76 259.2L76.49 189.31 189.32 76.49l160.72 160.72v112.83H237.21zm320.24-112.83L718.17 76.49 831 189.31 670.28 350.04H557.45V237.21zm112.83 320.24L831 718.17 718.17 831 557.45 670.28V557.45h112.83z"/>
</svg>

