<svg xmlns="http://www.w3.org/2000/svg" fill-rule="evenodd" viewBox="0 0 96.54 119.2">
  <path fill="#ce7df0" d="M59.92 41.58c0-6.43-5.21-11.65-11.65-11.65-6.43 0-11.65 5.22-11.65 11.65 0 6.43 5.22 11.65 11.65 11.65 6.43 0 11.65-5.22 11.65-11.65zM7.69 52.65c0 25.32 16.36 50.22 40.59 58.49 24.23-8.27 40.59-33.18 40.59-58.49V26.07L48.28 8.36 7.69 26.07v26.58zm-7.68 0V21.07L48.28 0l48.27 21.07v31.58c0 30.08-19.52 57.43-48.27 66.56C19.53 110.08.01 82.73.01 52.65zm48.27 5.14c-7.59 0-22.78 3.75-23.3 11.24 5.19 7.39 13.73 12.17 23.3 12.17s18.1-4.78 23.3-12.17c-.52-7.49-15.71-11.24-23.3-11.24z"/>
</svg>