<svg xmlns="http://www.w3.org/2000/svg" fill-rule="evenodd" viewBox="0 0 27.19 27.8">
	<path fill="#ce7df0"
		d="M6.83 0h13.22v2.37h-1.38v-.99H7.53v6.14H1.39v18.9h17.28v-.99h1.38v2.37H0V6.54L6.54 0h.29zm1.81 19.07c0-.88-.6-1.2-1.34-1.47-1.52-.57-2.97-1.24-2.97-3.13 0-1.59 1.13-2.55 2.65-2.7v-1.44h1.07v1.46c1.68.24 2.53 1.48 2.53 3.12H8.64c0-.81-.29-1.6-1.22-1.6-.74 0-1.15.44-1.15 1.17 0 1.23 1.76 1.53 2.71 2.05 1.02.57 1.6 1.33 1.6 2.53 0 1.63-1.12 2.54-2.67 2.69v1.33H6.84v-1.33c-1.83-.2-2.88-1.33-2.88-3.18H5.9c0 .97.44 1.65 1.47 1.65.72 0 1.27-.39 1.27-1.15zm14.46 1.06h1.58v1.58H23.1v-1.58zm-3.72 0h1.58v1.58h-1.58v-1.58zm-3.72 0h1.58v1.58h-1.58v-1.58zM6.13 2.35L2.35 6.13h3.78V2.35zm16.96 15.09h1.58v1.58h-1.58v-1.58zm-3.72 0h1.58v1.58h-1.58v-1.58zm-3.72 0h1.58v1.58h-1.58v-1.58zm7.43-2.69h1.58v1.58h-1.58v-1.58zm-3.72 0h1.58v1.58h-1.58v-1.58zm-3.72 0h1.58v1.58h-1.58v-1.58zm7.43-2.69h1.58v1.58h-1.58v-1.58zm-3.72 0h1.58v1.58h-1.58v-1.58zm-3.72 0h1.58v1.58h-1.58v-1.58zm0-6.04h9.01v4.82h-9.01V6.02zm7.63 1.38h-6.25v2.06h6.25V7.4zm3.89-3.89v20.75H13.11V3.51h14.04zm-1.38 1.38H14.49v17.99h11.28V4.89z" />
</svg>