<svg xmlns="http://www.w3.org/2000/svg" fill-rule="evenodd" viewBox="0 0 134.66 134.65">
	<path fill="#ce7df0"
		d="M67.33 0C73.55 0 78.6 5.04 78.6 11.27c0 4.58-2.74 8.53-6.67 10.29v26.75c2 .48 3.88 1.28 5.6 2.32l18.91-18.91c-1.53-4.02-.68-8.75 2.57-11.99 4.4-4.4 11.53-4.4 15.93 0s4.4 11.53 0 15.93c-3.24 3.24-7.97 4.1-11.99 2.56L84.04 57.13c1.04 1.71 1.84 3.59 2.32 5.6h26.75c1.76-3.93 5.71-6.67 10.29-6.67 6.22 0 11.27 5.05 11.27 11.27 0 6.23-5.05 11.27-11.27 11.27-4.58 0-8.53-2.74-10.29-6.67H86.36c-.48 2.01-1.28 3.89-2.32 5.6l18.91 18.91c4.02-1.53 8.75-.68 11.99 2.56 4.4 4.4 4.4 11.53 0 15.93s-11.53 4.4-15.93 0c-3.24-3.24-4.1-7.97-2.57-11.99L77.52 84.02c-1.71 1.05-3.59 1.84-5.59 2.32v26.75c3.93 1.76 6.67 5.71 6.67 10.29 0 6.22-5.05 11.27-11.27 11.27s-11.27-5.05-11.27-11.27c0-4.58 2.74-8.53 6.67-10.29V86.34c-1.99-.49-3.88-1.28-5.59-2.33l-18.92 18.92c1.53 4.02.68 8.75-2.56 11.99-4.4 4.4-11.53 4.4-15.94 0-4.4-4.4-4.4-11.53 0-15.93 3.24-3.24 7.97-4.09 11.99-2.56L50.63 77.5c-1.05-1.71-1.84-3.59-2.32-5.58H21.55c-1.75 3.93-5.71 6.67-10.29 6.67-6.23 0-11.27-5.04-11.27-11.27 0-6.22 5.05-11.27 11.27-11.27 4.58 0 8.53 2.74 10.29 6.67h26.76c.48-2 1.27-3.89 2.32-5.59L31.71 38.21c-4.03 1.54-8.75.68-11.99-2.56-4.4-4.4-4.4-11.53 0-15.93s11.53-4.4 15.94 0c3.24 3.24 4.09 7.97 2.56 11.99l18.92 18.92c1.7-1.05 3.58-1.84 5.59-2.32V21.56c-3.93-1.75-6.67-5.7-6.67-10.29C56.06 5.04 61.11 0 67.33 0zm0 56.96c-5.73 0-10.36 4.63-10.36 10.36 0 5.75 4.61 10.36 10.36 10.36 5.74 0 10.36-4.62 10.36-10.36 0-5.72-4.64-10.36-10.36-10.36z" />
</svg>