<svg xmlns="http://www.w3.org/2000/svg" fill-rule="evenodd" viewBox="0 0 27.19 27.8">
	<path fill="#ce7df0"
		d="M6.83 0h13.22v2.37h-1.38v-.99H7.53v6.14H1.39v18.9h17.28v-.99h1.38v2.37H0V6.54L6.54 0h.29zm4.37 14.85c.04-2.22-1.64-4.15-3.96-4.15-2.32 0-4.01 1.92-3.97 4.15l1.47-.05c-.04-1.33 1-2.61 2.49-2.61 1.5 0 2.54 1.28 2.49 2.61l1.47.05zm-4.7 2.3H4.29l2.95-2.99 2.95 2.99H7.98v7.13H6.5v-7.13zm16.6 2.98h1.58v1.58H23.1v-1.58zm-3.72 0h1.58v1.58h-1.58v-1.58zm-3.72 0h1.58v1.58h-1.58v-1.58zM6.13 2.35L2.35 6.13h3.78V2.35zm16.96 15.09h1.58v1.58h-1.58v-1.58zm-3.72 0h1.58v1.58h-1.58v-1.58zm-3.72 0h1.58v1.58h-1.58v-1.58zm7.43-2.69h1.58v1.58h-1.58v-1.58zm-3.72 0h1.58v1.58h-1.58v-1.58zm-3.72 0h1.58v1.58h-1.58v-1.58zm7.43-2.69h1.58v1.58h-1.58v-1.58zm-3.72 0h1.58v1.58h-1.58v-1.58zm-3.72 0h1.58v1.58h-1.58v-1.58zm0-6.04h9.01v4.82h-9.01V6.02zm7.63 1.38h-6.25v2.06h6.25V7.4zm3.89-3.89v20.75H13.11V3.51h14.04zm-1.38 1.38H14.49v17.99h11.28V4.89z" />
</svg>