<svg xmlns="http://www.w3.org/2000/svg" fill-rule="evenodd" viewBox="0 0 122.67 126.55">
	<path fill="#ce7df0"
		d="M122.68 0v126.55H5.58v-19.29H0v-8.8h5.58v-7.04H0v-8.8h5.58v-7.03H0v-8.8h5.58v-7.04H0v-8.8h5.58v-7.04H0v-8.8h5.58v-7.04H0v-8.8h5.58V-.02h117.1zM98.2 57.57c.65-32.12-47.87-32.15-47.25-.01l8.76-.27c-.61-20.14 30.38-20.11 29.74.01l8.76.28zM70.17 71.1h-13.2l17.59-17.59L92.15 71.1H78.96v22.29h-8.8V71.1zm-43.71 46.65V8.79h-12.1v10.5h6.01v8.8h-6.01v7.04h6.01v8.8h-6.01v7.04h6.01v8.8h-6.01v7.04h6.01v8.8h-6.01v7.03h6.01v8.8h-6.01v7.04h6.01v8.8h-6.01v10.5h12.1zM113.87 8.79H35.25v108.96h78.62V8.79z" />
</svg>