<svg xmlns="http://www.w3.org/2000/svg" fill-rule="evenodd" viewBox="0 0 19.8 19.8">
	<path fill="#ce7df0"
		d="M9.9 0c.92 0 1.66.74 1.66 1.66 0 .67-.4 1.25-.98 1.51V7.1c.29.07.57.19.82.34l2.78-2.78c-.22-.59-.1-1.29.38-1.76.65-.65 1.7-.65 2.34 0 .65.65.65 1.7 0 2.34-.48.48-1.17.6-1.76.38L12.36 8.4c.15.25.27.53.34.82h3.93c.26-.58.84-.98 1.51-.98.92 0 1.66.74 1.66 1.66 0 .92-.74 1.66-1.66 1.66-.67 0-1.25-.4-1.51-.98H12.7c-.07.29-.19.57-.34.82l2.78 2.78c.59-.23 1.29-.1 1.76.38.65.65.65 1.7 0 2.34-.65.65-1.7.65-2.34 0-.48-.48-.6-1.17-.38-1.76l-2.78-2.78c-.25.15-.53.27-.82.34v4.32h1.62L9.87 19.8 7.6 17.02h1.62V12.7c-.29-.07-.57-.19-.82-.34l-2.78 2.78c.22.59.1 1.29-.38 1.76-.65.65-1.7.65-2.34 0-.65-.65-.65-1.7 0-2.34.48-.48 1.17-.6 1.76-.38l2.78-2.78c-.15-.25-.27-.53-.34-.82H3.17c-.26.58-.84.98-1.51.98C.74 11.56 0 10.82 0 9.9c0-.92.74-1.66 1.66-1.66.67 0 1.25.4 1.51.98H7.1c.07-.29.19-.57.34-.82L4.66 5.62c-.59.23-1.29.1-1.76-.38-.65-.65-.65-1.7 0-2.34.65-.65 1.7-.65 2.34 0 .48.48.6 1.17.38 1.76L8.4 7.44c.25-.15.53-.27.82-.34V3.17c-.58-.26-.98-.84-.98-1.51C8.24.74 8.98 0 9.9 0zm0 8.38c-.84 0-1.52.68-1.52 1.52 0 .85.68 1.52 1.52 1.52s1.52-.68 1.52-1.52-.68-1.52-1.52-1.52z" />
</svg>