<svg xmlns="http://www.w3.org/2000/svg" fill-rule="evenodd" viewBox="0 0 122.73 126.59">
	<path fill="#ce7df0"
		d="M122.73 0v126.59H5.59v-19.3H.01v-8.8h5.58v-7.04H.01v-8.8h5.58v-7.03H.01v-8.8h5.58v-7.04H.01v-8.8h5.58v-7.04H.01v-8.8h5.58V28.1H.01v-8.8h5.58V0h117.14zM98.25 69c.65 32.15-47.89 32.19-47.27.01l8.76.28c-.61 20.12 30.39 20.09 29.75-.01l8.77-.28zM70.21 55.47h-13.2l17.6 17.6 17.6-17.6h-13.2v-22.3h-8.8v22.3zM26.49 117.8V8.8h-12.1v10.51h6.01v8.8h-6.01v7.04h6.01v8.8h-6.01v7.04h6.01v8.8h-6.01v7.04h6.01v8.8h-6.01v7.03h6.01v8.8h-6.01v7.04h6.01v8.8h-6.01v10.5h12.1zm87.45-109H35.29v109h78.65V8.8z" />
</svg>