<svg xmlns="http://www.w3.org/2000/svg" fill-rule="evenodd" viewBox="0 0 122.67 126.55">
	<path fill="#ce7df0"
		d="M122.68 0v126.55H5.58v-19.29H0v-8.8h5.58v-7.04H0v-8.8h5.58v-7.04H0v-8.8h5.58v-7.04H0v-8.8h5.58v-7.03H0v-8.8h5.58v-7.04H0v-8.8h5.58V-.02h117.1zm-40.6 76.23c0-7.19-8.82-8.3-14.24-11.07-5.9-3.01-9.36-7.2-9.36-14.15 0-8.72 6.17-13.96 14.5-14.8v-7.86h5.88v7.97c9.21 1.31 13.84 8.08 13.84 17.07H82.08c0-4.41-1.57-8.76-6.68-8.76-4.03 0-6.31 2.4-6.31 6.4 0 6.72 9.62 8.37 14.84 11.23 5.61 3.12 8.77 7.3 8.77 13.88 0 4.18-1.31 7.55-3.9 10.14-2.59 2.61-6.16 4.14-10.72 4.6v7.31h-5.84v-7.27c-5.01-.54-8.9-2.32-11.66-5.34s-4.14-7.04-4.14-12.07h10.62c0 5.3 2.4 9.03 8.05 9.03 3.97 0 6.97-2.12 6.97-6.31zm-55.61 41.52V8.79h-12.1v10.5h6.01v8.8h-6.01v7.04h6.01v8.8h-6.01v7.03h6.01v8.8h-6.01v7.04h6.01v8.8h-6.01v7.04h6.01v8.8h-6.01v7.04h6.01v8.8h-6.01v10.5h12.1zM113.88 8.79H35.26v108.96h78.62V8.79z" />
</svg>